<?xml version="1.0" encoding="UTF-8"?>
<!DOCTYPE svg PUBLIC "-//W3C//DTD SVG 1.1//EN" "http://www.w3.org/Graphics/SVG/1.1/DTD/svg11.dtd">
<svg xmlns="http://www.w3.org/2000/svg" version="1.1" width="500px" height="500px" style="shape-rendering:geometricPrecision; text-rendering:geometricPrecision; image-rendering:optimizeQuality; fill-rule:evenodd; clip-rule:evenodd" xmlns:xlink="http://www.w3.org/1999/xlink">
<g><path style="opacity:1" fill="#fefefe" d="M -0.5,-0.5 C 166.167,-0.5 332.833,-0.5 499.5,-0.5C 499.5,166.167 499.5,332.833 499.5,499.5C 332.833,499.5 166.167,499.5 -0.5,499.5C -0.5,332.833 -0.5,166.167 -0.5,-0.5 Z"/></g>
<g><path style="opacity:1" fill="#259d5d" d="M 240.5,49.5 C 270.913,47.7641 290.413,61.4307 299,90.5C 301.357,118.964 289.19,138.131 262.5,148C 232.194,153.008 211.694,141.175 201,112.5C 196.444,80.2615 209.611,59.2615 240.5,49.5 Z"/></g>
<g><path style="opacity:1" fill="#fbfcfb" d="M 242.5,52.5 C 262.936,50.9697 278.77,58.6364 290,75.5C 299.655,94.3306 298.322,112.331 286,129.5C 265.594,149.565 243.427,151.732 219.5,136C 199.519,115.579 197.352,93.4123 213,69.5C 221.043,60.5668 230.876,54.9001 242.5,52.5 Z"/></g>
<g><path style="opacity:1" fill="#b1b1b1" d="M 223.5,79.5 C 223.916,84.4932 224.249,89.4932 224.5,94.5C 222.754,89.5517 222.421,84.5517 223.5,79.5 Z"/></g>
<g><path style="opacity:1" fill="#1e1e1e" d="M 224.5,94.5 C 224.249,89.4932 223.916,84.4932 223.5,79.5C 232.174,76.495 240.841,73.495 249.5,70.5C 258.288,74.0961 267.288,77.0961 276.5,79.5C 276.357,101.13 267.357,117.797 249.5,129.5C 236.089,121.428 227.756,109.761 224.5,94.5 Z"/></g>
<g><path style="opacity:1" fill="#f6f6f6" d="M 246.5,72.5 C 252.955,73.2196 258.955,75.3863 264.5,79C 267.393,80.1488 270.393,80.6488 273.5,80.5C 273.816,97.3982 267.816,111.565 255.5,123C 253.606,124.404 251.606,125.57 249.5,126.5C 241.837,122.336 236.003,116.336 232,108.5C 230.53,103.757 228.864,99.0907 227,94.5C 226.335,89.8439 225.835,85.1772 225.5,80.5C 233.278,79.7739 240.278,77.1073 246.5,72.5 Z"/></g>
<g><path style="opacity:1" fill="#242424" d="M 246.5,83.5 C 253.67,82.3392 257.003,85.3392 256.5,92.5C 257.822,92.33 258.989,92.6634 260,93.5C 260.667,98.5 260.667,103.5 260,108.5C 253,109.833 246,109.833 239,108.5C 238.333,103.5 238.333,98.5 239,93.5C 240.011,92.6634 241.178,92.33 242.5,92.5C 241.981,88.5475 243.314,85.5475 246.5,83.5 Z"/></g>
<g><path style="opacity:1" fill="#7c7c7c" d="M 241.5,95.5 C 246.975,94.5111 252.642,94.1778 258.5,94.5C 258.5,98.8333 258.5,103.167 258.5,107.5C 252.642,107.822 246.975,107.489 241.5,106.5C 246.833,106.5 252.167,106.5 257.5,106.5C 257.5,102.833 257.5,99.1667 257.5,95.5C 252.167,95.5 246.833,95.5 241.5,95.5 Z"/></g>
<g><path style="opacity:1" fill="#f6f6f6" d="M 241.5,95.5 C 246.833,95.5 252.167,95.5 257.5,95.5C 257.5,99.1667 257.5,102.833 257.5,106.5C 252.167,106.5 246.833,106.5 241.5,106.5C 241.5,102.833 241.5,99.1667 241.5,95.5 Z"/></g>
<g><path style="opacity:1" fill="#232323" d="M 248.5,98.5 C 251.93,99.2108 252.263,100.877 249.5,103.5C 248.548,101.955 248.215,100.288 248.5,98.5 Z"/></g>
<g><path style="opacity:1" fill="#e7e7e7" d="M 247.5,85.5 C 252.833,84.8333 255.167,87.1667 254.5,92.5C 251.167,92.5 247.833,92.5 244.5,92.5C 244.15,89.5466 245.15,87.2133 247.5,85.5 Z"/></g>
<g><path style="opacity:1" fill="#1d54b1" d="M 234.5,178.5 C 278.351,174.246 306.851,192.912 320,234.5C 324.851,278.291 306.351,306.791 264.5,320C 234.398,324.638 209.898,315.138 191,291.5C 171.861,260.753 173.195,231.087 195,202.5C 205.958,190.775 219.125,182.775 234.5,178.5 Z"/></g>
<g><path style="opacity:1" fill="#fcfdfd" d="M 240.5,181.5 C 276.441,179.961 301.108,195.794 314.5,229C 323.072,270.525 307.739,299.192 268.5,315C 229.346,322.591 201.679,308.258 185.5,272C 175.4,232.866 188.4,204.2 224.5,186C 230.034,184.704 235.367,183.204 240.5,181.5 Z"/></g>
<g><path style="opacity:1" fill="#52bdff" d="M 92.5,201.5 C 115.133,200.397 132.3,209.397 144,228.5C 155.081,254.915 149.248,276.748 126.5,294C 100.592,307.619 78.0922,303.453 59,281.5C 42.781,254.001 46.9476,230.168 71.5,210C 78.1874,206.057 85.1874,203.224 92.5,201.5 Z"/></g>
<g><path style="opacity:1" fill="#fffc34" d="M 392.5,201.5 C 420.225,200.263 438.725,212.596 448,238.5C 453.06,270.575 440.226,291.408 409.5,301C 387.113,304.548 369.613,297.048 357,278.5C 343.261,251.632 348.095,228.799 371.5,210C 378.187,206.057 385.187,203.224 392.5,201.5 Z"/></g>
<g><path style="opacity:1" fill="#fcfdfd" d="M 88.5,205.5 C 116.446,202.205 135.279,213.538 145,239.5C 149.758,270.166 137.258,289.666 107.5,298C 80.0774,300.543 62.244,288.71 54,262.5C 50.2028,234.075 61.7028,215.075 88.5,205.5 Z"/></g>
<g><path style="opacity:1" fill="#fdfdfc" d="M 389.5,205.5 C 419.381,202.835 438.214,215.835 446,244.5C 447.472,272.686 434.639,290.52 407.5,298C 386.694,300.345 370.527,292.845 359,275.5C 347.16,250.045 352.327,228.878 374.5,212C 379.367,209.226 384.367,207.059 389.5,205.5 Z"/></g>
<g><path style="opacity:1" fill="#101010" d="M 378.5,220.5 C 388.172,220.334 397.839,220.5 407.5,221C 412,225.5 416.5,230 421,234.5C 421.5,248.163 421.667,261.829 421.5,275.5C 407.167,275.5 392.833,275.5 378.5,275.5C 378.5,257.167 378.5,238.833 378.5,220.5 Z"/></g>
<g><path style="opacity:1" fill="#f3f3f3" d="M 380.5,222.5 C 388.5,222.5 396.5,222.5 404.5,222.5C 404.5,227.167 404.5,231.833 404.5,236.5C 409.43,236.197 414.263,236.531 419,237.5C 419.667,249.167 419.667,260.833 419,272.5C 406.246,273.489 393.413,273.822 380.5,273.5C 380.5,256.5 380.5,239.5 380.5,222.5 Z"/></g>
<g><path style="opacity:1" fill="#292929" d="M 279.5,263.5 C 278.833,251.833 278.167,240.167 277.5,228.5C 277.389,227.883 277.056,227.383 276.5,227C 258.503,226.5 240.503,226.333 222.5,226.5C 221.662,226.158 221.328,225.492 221.5,224.5C 230.494,223.834 239.66,223.5 249,223.5C 258.928,223.357 268.762,223.857 278.5,225C 279,225.5 279.5,226 280,226.5C 280.827,239.007 280.66,251.34 279.5,263.5 Z"/></g>
<g><path style="opacity:1" fill="#e7e7e7" d="M 406.5,224.5 C 409.964,227.462 413.297,230.629 416.5,234C 413.183,234.498 409.85,234.665 406.5,234.5C 406.5,231.167 406.5,227.833 406.5,224.5 Z"/></g>
<g><path style="opacity:1" fill="#232323" d="M 277.5,228.5 C 278.167,240.167 278.833,251.833 279.5,263.5C 279.426,265.411 278.426,266.578 276.5,267C 274.527,267.495 272.527,267.662 270.5,267.5C 270.5,266.5 270.5,265.5 270.5,264.5C 272.792,264.756 274.959,264.423 277,263.5C 277.5,251.838 277.667,240.171 277.5,228.5 Z"/></g>
<g><path style="opacity:1" fill="#252525" d="M 112.5,251.5 C 107.511,252.609 103.844,250.942 101.5,246.5C 101.833,246.167 102.167,245.833 102.5,245.5C 106.138,249.712 110.471,250.545 115.5,248C 118.704,245.131 121.537,241.965 124,238.5C 125.622,229.21 121.789,225.71 112.5,228C 108.868,230.63 105.535,233.63 102.5,237C 101.563,237.692 100.897,237.525 100.5,236.5C 103.998,232.169 107.998,228.336 112.5,225C 123.384,223.884 128.218,228.718 127,239.5C 124.608,242.468 122.108,245.301 119.5,248C 117.423,249.705 115.09,250.872 112.5,251.5 Z"/></g>
<g><path style="opacity:1" fill="#1f1f1f" d="M 258.5,242.5 C 255.541,236.027 250.541,233.861 243.5,236C 241.907,236.949 240.574,238.115 239.5,239.5C 237.33,242.396 235.997,245.729 235.5,249.5C 234.345,246.554 234.179,243.554 235,240.5C 244.84,229.528 253.84,230.195 262,242.5C 262.497,244.81 262.663,247.143 262.5,249.5C 261.5,249.5 260.5,249.5 259.5,249.5C 259.802,246.941 259.468,244.607 258.5,242.5 Z"/></g>
<g><path style="opacity:1" fill="#dadada" d="M 258.5,242.5 C 257.833,244.167 257.167,245.833 256.5,247.5C 255.853,239.384 251.52,236.551 243.5,239C 242.627,240.045 241.627,240.878 240.5,241.5C 240.672,240.508 240.338,239.842 239.5,239.5C 240.574,238.115 241.907,236.949 243.5,236C 250.541,233.861 255.541,236.027 258.5,242.5 Z"/></g>
<g><path style="opacity:1" fill="#181818" d="M 256.5,247.5 C 254.948,245.965 253.615,244.131 252.5,242C 246.416,239.208 242.416,241.041 240.5,247.5C 239.306,245.484 239.306,243.484 240.5,241.5C 241.627,240.878 242.627,240.045 243.5,239C 251.52,236.551 255.853,239.384 256.5,247.5 Z"/></g>
<g><path style="opacity:1" fill="#1e1e1e" d="M 101.5,239.5 C 104.649,239.211 107.649,239.711 110.5,241C 112.515,242.555 112.848,244.389 111.5,246.5C 110.092,241.923 107.092,240.423 102.5,242C 98.3333,246.167 94.1667,250.333 90,254.5C 88.4227,259.092 89.9227,262.092 94.5,263.5C 90.9036,265.279 88.4036,264.279 87,260.5C 86.2967,258.071 86.4634,255.738 87.5,253.5C 92.5,249.167 97.1667,244.5 101.5,239.5 Z"/></g>
<g><path style="opacity:1" fill="#151515" d="M 255.5,254.5 C 256.609,255.29 257.942,255.79 259.5,256C 257.866,256.494 256.199,256.66 254.5,256.5C 254.103,255.475 253.437,255.308 252.5,256C 251.929,257.205 251.262,258.372 250.5,259.5C 249.507,254.88 249.173,250.214 249.5,245.5C 248.5,245.5 247.5,245.5 246.5,245.5C 246.83,252.532 246.497,259.532 245.5,266.5C 243.833,265.167 242.167,263.833 240.5,262.5C 239.417,263.365 239.251,264.365 240,265.5C 242.833,268.333 245.667,271.167 248.5,274C 252.833,274.667 257.167,274.667 261.5,274C 262.883,272.729 263.883,271.229 264.5,269.5C 265.323,266.023 265.823,262.356 266,258.5C 266.499,262.486 266.666,266.486 266.5,270.5C 266.089,274.079 264.089,276.246 260.5,277C 250.091,278.623 242.258,274.789 237,265.5C 236.044,261.075 237.877,259.408 242.5,260.5C 242.783,261.289 243.283,261.956 244,262.5C 244.499,256.843 244.666,251.176 244.5,245.5C 246.282,243.313 248.448,242.98 251,244.5C 251.498,247.482 251.665,250.482 251.5,253.5C 252.959,253.433 254.292,253.766 255.5,254.5 Z"/></g>
<g><path style="opacity:1" fill="#030303" d="M 387.5,244.5 C 395.528,244.169 403.528,244.502 411.5,245.5C 407.5,245.833 403.5,246.167 399.5,246.5C 395.107,246.491 391.107,245.824 387.5,244.5 Z"/></g>
<g><path style="opacity:1" fill="#aeaeae" d="M 244.5,245.5 C 244.666,251.176 244.499,256.843 244,262.5C 243.283,261.956 242.783,261.289 242.5,260.5C 243.167,255.5 243.833,250.5 244.5,245.5 Z"/></g>
<g><path style="opacity:1" fill="#f0f0f0" d="M 254.5,256.5 C 254.766,260.079 256.099,260.413 258.5,257.5C 259.386,258.325 259.719,259.325 259.5,260.5C 261.143,260.52 262.476,259.853 263.5,258.5C 264.489,262.107 264.823,265.774 264.5,269.5C 263.883,271.229 262.883,272.729 261.5,274C 257.167,274.667 252.833,274.667 248.5,274C 245.667,271.167 242.833,268.333 240,265.5C 239.251,264.365 239.417,263.365 240.5,262.5C 242.167,263.833 243.833,265.167 245.5,266.5C 246.497,259.532 246.83,252.532 246.5,245.5C 247.5,245.5 248.5,245.5 249.5,245.5C 249.173,250.214 249.507,254.88 250.5,259.5C 251.262,258.372 251.929,257.205 252.5,256C 253.437,255.308 254.103,255.475 254.5,256.5 Z"/></g>
<g><path style="opacity:1" fill="#040404" d="M 387.5,251.5 C 393.868,251.17 400.202,251.504 406.5,252.5C 403.333,252.833 400.167,253.167 397,253.5C 393.424,253.485 390.258,252.818 387.5,251.5 Z"/></g>
<g><path style="opacity:1" fill="#222222" d="M 106.5,253.5 C 107.525,253.897 107.692,254.563 107,255.5C 105.549,257.464 103.716,258.797 101.5,259.5C 102.473,256.865 104.14,254.865 106.5,253.5 Z"/></g>
<g><path style="opacity:1" fill="#efefef" d="M 112.5,251.5 C 110.5,252.167 108.5,252.833 106.5,253.5C 104.14,254.865 102.473,256.865 101.5,259.5C 100.686,261.631 100.186,263.964 100,266.5C 99.6174,267.056 99.1174,267.389 98.5,267.5C 100.732,261.738 99.3991,257.072 94.5,253.5C 94.1667,254 93.8333,254.5 93.5,255C 95.5104,257.167 96.8437,259.667 97.5,262.5C 97.423,264.299 96.923,265.966 96,267.5C 93.1667,270.333 90.3333,273.167 87.5,276C 82.2707,278.71 78.104,277.543 75,272.5C 74.3,265.245 77.3,259.911 84,256.5C 84.7401,255.251 84.5735,254.251 83.5,253.5C 84.7054,252.314 86.0387,252.314 87.5,253.5C 86.4634,255.738 86.2967,258.071 87,260.5C 88.4036,264.279 90.9036,265.279 94.5,263.5C 89.9227,262.092 88.4227,259.092 90,254.5C 94.1667,250.333 98.3333,246.167 102.5,242C 107.092,240.423 110.092,241.923 111.5,246.5C 112.848,244.389 112.515,242.555 110.5,241C 107.649,239.711 104.649,239.211 101.5,239.5C 100.909,238.849 100.243,238.182 99.5,237.5C 99.6236,236.893 99.9569,236.56 100.5,236.5C 100.897,237.525 101.563,237.692 102.5,237C 105.535,233.63 108.868,230.63 112.5,228C 121.789,225.71 125.622,229.21 124,238.5C 121.537,241.965 118.704,245.131 115.5,248C 110.471,250.545 106.138,249.712 102.5,245.5C 102.167,245.833 101.833,246.167 101.5,246.5C 103.844,250.942 107.511,252.609 112.5,251.5 Z"/></g>
<g><path style="opacity:1" fill="#323232" d="M 255.5,254.5 C 259.686,254.433 263.519,255.433 267,257.5C 267.814,262.02 267.647,266.354 266.5,270.5C 266.666,266.486 266.499,262.486 266,258.5C 265.823,262.356 265.323,266.023 264.5,269.5C 264.823,265.774 264.489,262.107 263.5,258.5C 262.476,259.853 261.143,260.52 259.5,260.5C 259.719,259.325 259.386,258.325 258.5,257.5C 256.099,260.413 254.766,260.079 254.5,256.5C 256.199,256.66 257.866,256.494 259.5,256C 257.942,255.79 256.609,255.29 255.5,254.5 Z"/></g>
<g><path style="opacity:1" fill="#414141" d="M 387.5,258.5 C 395.5,258.5 403.5,258.5 411.5,258.5C 411.5,259.5 411.5,260.5 411.5,261.5C 403.5,261.5 395.5,261.5 387.5,261.5C 387.5,260.5 387.5,259.5 387.5,258.5 Z"/></g>
<g><path style="opacity:1" fill="#2c2c2c" d="M 221.5,224.5 C 221.328,225.492 221.662,226.158 222.5,226.5C 221.355,238.758 221.188,251.091 222,263.5C 225.73,264.46 229.563,264.793 233.5,264.5C 233.5,265.5 233.5,266.5 233.5,267.5C 229.486,267.666 225.486,267.499 221.5,267C 220.667,266.167 219.833,265.333 219,264.5C 218.333,251.833 218.333,239.167 219,226.5C 219.708,225.619 220.542,224.953 221.5,224.5 Z"/></g>
<g><path style="opacity:1" fill="#1e1e1e" d="M 83.5,253.5 C 84.5735,254.251 84.7401,255.251 84,256.5C 77.3,259.911 74.3,265.245 75,272.5C 78.104,277.543 82.2707,278.71 87.5,276C 90.3333,273.167 93.1667,270.333 96,267.5C 96.923,265.966 97.423,264.299 97.5,262.5C 96.8437,259.667 95.5104,257.167 93.5,255C 93.8333,254.5 94.1667,254 94.5,253.5C 99.3991,257.072 100.732,261.738 98.5,267.5C 94.8479,274.073 89.3479,278.073 82,279.5C 74.1925,277.571 71.1925,272.571 73,264.5C 76.002,260.332 79.502,256.665 83.5,253.5 Z"/></g>
<g><path style="opacity:1" fill="#1450b0" d="M 69.5,414.5 C 69.1667,413.833 68.8333,413.167 68.5,412.5C 67.304,409.579 66.304,406.579 65.5,403.5C 64.8902,402.609 64.5569,401.609 64.5,400.5C 64.8333,398.5 65.1667,396.5 65.5,394.5C 66.5,394.5 67.5,394.5 68.5,394.5C 71.6362,404.738 75.4696,414.738 80,424.5C 81.0674,425.191 82.2341,425.691 83.5,426C 78.8333,426.667 74.1667,426.667 69.5,426C 71.1802,425.653 72.1802,424.653 72.5,423C 71.1969,420.256 70.1969,417.423 69.5,414.5 Z"/></g>
<g><path style="opacity:1" fill="#2056b3" d="M 119.5,396.5 C 122.899,395.18 126.399,395.18 130,396.5C 132.742,403.646 135.742,410.646 139,417.5C 141.736,410.46 144.569,403.46 147.5,396.5C 150.784,395.343 154.118,395.176 157.5,396C 156.584,396.374 155.75,396.874 155,397.5C 154.333,406.5 154.333,415.5 155,424.5C 156.067,425.191 157.234,425.691 158.5,426C 153.833,426.667 149.167,426.667 144.5,426C 145.416,425.626 146.25,425.126 147,424.5C 147.667,416.833 147.667,409.167 147,401.5C 143.714,410.034 140.047,418.367 136,426.5C 132.076,418.314 128.409,409.981 125,401.5C 124.333,409.167 124.333,416.833 125,424.5C 126.067,425.191 127.234,425.691 128.5,426C 125.5,426.667 122.5,426.667 119.5,426C 120.416,425.626 121.25,425.126 122,424.5C 122.5,415.173 122.666,405.839 122.5,396.5C 121.5,396.5 120.5,396.5 119.5,396.5 Z"/></g>
<g><path style="opacity:1" fill="#044bad" d="M 161.5,396.5 C 165.981,395.352 170.648,395.185 175.5,396C 174.234,396.309 173.067,396.809 172,397.5C 171.333,406.5 171.333,415.5 172,424.5C 173.067,425.191 174.234,425.691 175.5,426C 170.833,426.667 166.167,426.667 161.5,426C 162.766,425.691 163.933,425.191 165,424.5C 165.667,415.5 165.667,406.5 165,397.5C 163.989,396.663 162.822,396.33 161.5,396.5 Z"/></g>
<g><path style="opacity:1" fill="#1450b0" d="M 204.5,415.5 C 204.56,416.043 204.893,416.376 205.5,416.5C 206.817,410.012 206.817,403.678 205.5,397.5C 204.737,396.732 203.737,396.232 202.5,396C 205.5,395.333 208.5,395.333 211.5,396C 210.234,396.309 209.067,396.809 208,397.5C 207.832,407.517 207.332,417.517 206.5,427.5C 199.522,418.688 192.355,410.021 185,401.5C 184.333,409.167 184.333,416.833 185,424.5C 186.067,425.191 187.234,425.691 188.5,426C 185.5,426.667 182.5,426.667 179.5,426C 180.766,425.691 181.933,425.191 183,424.5C 183.667,415.833 183.667,407.167 183,398.5C 182.097,397.299 180.931,396.465 179.5,396C 182.5,395.333 185.5,395.333 188.5,396C 193.961,402.439 199.294,408.939 204.5,415.5 Z"/></g>
<g><path style="opacity:1" fill="#1e53b1" d="M 268.5,407.5 C 269.833,409.167 269.833,410.833 268.5,412.5C 266.735,411.539 264.735,411.205 262.5,411.5C 262.334,415.514 262.501,419.514 263,423.5C 266.183,425.523 269.683,426.023 273.5,425C 275.487,423.681 276.654,421.848 277,419.5C 277.497,421.81 277.663,424.143 277.5,426.5C 269.16,426.666 260.827,426.5 252.5,426C 253.416,425.626 254.25,425.126 255,424.5C 255.5,415.173 255.666,405.839 255.5,396.5C 260.109,395.471 266.775,395.137 275.5,395.5C 275.663,397.857 275.497,400.19 275,402.5C 274.654,400.152 273.487,398.319 271.5,397C 268.518,396.502 265.518,396.335 262.5,396.5C 262.5,400.833 262.5,405.167 262.5,409.5C 265.01,409.946 267.01,409.28 268.5,407.5 Z"/></g>
<g><path style="opacity:1" fill="#1b53b1" d="M 280.5,396.5 C 288.069,395.091 295.735,395.258 303.5,397C 308.191,403.286 306.858,408.12 299.5,411.5C 303.032,417.075 307.366,421.909 312.5,426C 309.167,426.667 305.833,426.667 302.5,426C 299.359,421.359 296.026,416.859 292.5,412.5C 291.34,416.459 291.173,420.459 292,424.5C 292.75,425.126 293.584,425.626 294.5,426C 289.833,426.667 285.167,426.667 280.5,426C 281.766,425.691 282.933,425.191 284,424.5C 284.667,415.5 284.667,406.5 284,397.5C 282.989,396.663 281.822,396.33 280.5,396.5 Z"/></g>
<g><path style="opacity:1" fill="#1a53b1" d="M 312.5,396.5 C 318.099,395.201 321.766,395.201 323.5,396.5C 325.292,404.042 327.792,411.375 331,418.5C 334.381,411.418 336.881,404.085 338.5,396.5C 336.956,395.272 338.623,395.106 343.5,396C 341.667,396.5 340.5,397.667 340,399.5C 336.653,409.044 332.819,418.378 328.5,427.5C 324.075,417.645 319.908,407.645 316,397.5C 314.989,396.663 313.822,396.33 312.5,396.5 Z"/></g>
<g><path style="opacity:1" fill="#1d53b1" d="M 346.5,396.5 C 352.099,395.201 355.766,395.201 357.5,396.5C 357.334,405.839 357.5,415.173 358,424.5C 358.75,425.126 359.584,425.626 360.5,426C 355.833,426.667 351.167,426.667 346.5,426C 347.766,425.691 348.933,425.191 350,424.5C 350.667,415.5 350.667,406.5 350,397.5C 348.989,396.663 347.822,396.33 346.5,396.5 Z"/></g>
<g><path style="opacity:1" fill="#0d4eae" d="M 411.5,411.5 C 410.081,410.549 408.415,410.216 406.5,410.5C 406.182,415.032 406.515,419.366 407.5,423.5C 407.611,424.117 407.944,424.617 408.5,425C 411.5,425.667 414.5,425.667 417.5,425C 418.71,423.961 419.71,422.794 420.5,421.5C 421.451,422.919 421.784,424.585 421.5,426.5C 413.16,426.666 404.827,426.5 396.5,426C 397.766,425.691 398.933,425.191 400,424.5C 400.667,415.5 400.667,406.5 400,397.5C 398.933,396.809 397.766,396.309 396.5,396C 404.159,395.5 411.826,395.334 419.5,395.5C 419.66,397.199 419.494,398.866 419,400.5C 418.5,398.667 417.333,397.5 415.5,397C 412.571,396.223 409.737,396.39 407,397.5C 406.501,401.486 406.334,405.486 406.5,409.5C 410.158,410.128 412.658,408.794 414,405.5C 414.667,408.5 414.667,411.5 414,414.5C 413.148,413.429 412.315,412.429 411.5,411.5 Z"/></g>
<g><path style="opacity:1" fill="#1a52b0" d="M 84.5,396.5 C 90.987,395.346 97.6536,395.179 104.5,396C 113.608,399.379 117.108,405.879 115,415.5C 114.254,421.141 111.087,424.641 105.5,426C 98.5,426.667 91.5,426.667 84.5,426C 85.7659,425.691 86.9326,425.191 88,424.5C 88.6667,415.5 88.6667,406.5 88,397.5C 86.9887,396.663 85.8221,396.33 84.5,396.5 Z"/></g>
<g><path style="opacity:1" fill="#f9fbfd" d="M 95.5,396.5 C 101.843,395.755 106.01,398.422 108,404.5C 108.667,408.833 108.667,413.167 108,417.5C 106.081,423.803 102.081,426.136 96,424.5C 95.5002,415.173 95.3335,405.839 95.5,396.5 Z"/></g>
<g><path style="opacity:1" fill="#2357b3" d="M 235.5,394.5 C 238.39,394.278 241.057,394.945 243.5,396.5C 244.167,396.167 244.833,395.833 245.5,395.5C 246.652,398.106 246.818,400.773 246,403.5C 244.47,397.946 240.97,395.779 235.5,397C 232.646,400.6 233.313,403.6 237.5,406C 240.912,407.455 244.079,409.288 247,411.5C 250.431,420.41 247.431,425.743 238,427.5C 235.201,427.18 232.701,426.18 230.5,424.5C 229.914,424.709 229.414,425.043 229,425.5C 228.333,422.5 228.333,419.5 229,416.5C 230.756,425.045 235.423,427.379 243,423.5C 243.667,421.5 243.667,419.5 243,417.5C 239.919,414.707 236.419,412.54 232.5,411C 229.682,407.662 228.849,403.829 230,399.5C 231.352,397.251 233.185,395.584 235.5,394.5 Z"/></g>
<g><path style="opacity:1" fill="#f5f8fc" d="M 291.5,396.5 C 296.434,395.937 299.1,398.104 299.5,403C 299.534,408.468 296.867,410.968 291.5,410.5C 291.5,405.833 291.5,401.167 291.5,396.5 Z"/></g>
<g><path style="opacity:1" fill="#1b53b1" d="M 379.5,425.5 C 379.158,426.338 378.492,426.672 377.5,426.5C 371.03,425.535 366.864,421.868 365,415.5C 363.858,403.635 369.191,396.635 381,394.5C 384.28,394.704 387.28,395.704 390,397.5C 390.333,397.167 390.667,396.833 391,396.5C 391.667,398.833 391.667,401.167 391,403.5C 388.792,396.89 384.292,394.724 377.5,397C 371.045,404.371 369.878,412.537 374,421.5C 375.451,423.464 377.284,424.797 379.5,425.5 Z"/></g>
<g><path style="opacity:1" fill="#1f55b2" d="M 432.5,394.5 C 435.724,394.203 438.724,394.87 441.5,396.5C 442.086,396.291 442.586,395.957 443,395.5C 443.667,398.167 443.667,400.833 443,403.5C 441.496,397.981 437.996,395.814 432.5,397C 429.735,399.966 430.068,402.633 433.5,405C 437.873,406.713 441.707,409.213 445,412.5C 446.993,424.171 442.16,428.671 430.5,426C 428.729,423.887 427.229,424.053 426,426.5C 425.333,423.167 425.333,419.833 426,416.5C 427.55,423.407 431.717,426.24 438.5,425C 442.072,422.374 442.405,419.374 439.5,416C 434.516,414.266 430.349,411.433 427,407.5C 426.333,404.833 426.333,402.167 427,399.5C 428.73,397.598 430.563,395.931 432.5,394.5 Z"/></g>
<g><path style="opacity:1" fill="#a7c0e2" d="M 205.5,397.5 C 206.817,403.678 206.817,410.012 205.5,416.5C 204.893,416.376 204.56,416.043 204.5,415.5C 205.49,409.69 205.823,403.69 205.5,397.5 Z"/></g>
<g><path style="opacity:1" fill="#eef2f9" d="M 65.5,403.5 C 66.304,406.579 67.304,409.579 68.5,412.5C 66.1667,412.5 63.8333,412.5 61.5,412.5C 61.7109,408.818 63.0442,405.818 65.5,403.5 Z"/></g>
<g><path style="opacity:1" fill="#80a5d6" d="M 268.5,412.5 C 269.833,410.833 269.833,409.167 268.5,407.5C 268.369,406.624 268.702,405.957 269.5,405.5C 270.833,408.5 270.833,411.5 269.5,414.5C 268.702,414.043 268.369,413.376 268.5,412.5 Z"/></g>
<g><path style="opacity:1" fill="#95b2dc" d="M 411.5,411.5 C 410.167,411.5 408.833,411.5 407.5,411.5C 407.5,415.5 407.5,419.5 407.5,423.5C 406.515,419.366 406.182,415.032 406.5,410.5C 408.415,410.216 410.081,410.549 411.5,411.5 Z"/></g>
<g><path style="opacity:1" fill="#3761b8" d="M 214.5,412.5 C 217.833,412.5 221.167,412.5 224.5,412.5C 224.5,413.5 224.5,414.5 224.5,415.5C 221.167,415.5 217.833,415.5 214.5,415.5C 214.5,414.5 214.5,413.5 214.5,412.5 Z"/></g>
<g><path style="opacity:1" fill="#81a5d6" d="M 421.5,426.5 C 421.784,424.585 421.451,422.919 420.5,421.5C 420.369,420.624 420.702,419.957 421.5,419.5C 422.797,421.973 422.797,424.307 421.5,426.5 Z"/></g>
<g><path style="opacity:1" fill="#3b6cbc" d="M 64.5,400.5 C 64.5569,401.609 64.8902,402.609 65.5,403.5C 63.0442,405.818 61.7109,408.818 61.5,412.5C 63.8333,412.5 66.1667,412.5 68.5,412.5C 68.8333,413.167 69.1667,413.833 69.5,414.5C 66.1667,414.5 62.8333,414.5 59.5,414.5C 58.9421,417.344 58.2755,420.178 57.5,423C 57.7549,424.326 58.4216,425.326 59.5,426C 56.8333,426.667 54.1667,426.667 51.5,426C 52.9308,425.535 54.0975,424.701 55,423.5C 57.8996,415.612 61.0662,407.945 64.5,400.5 Z"/></g>
<g><path style="opacity:1" fill="#4673c0" d="M 377.5,426.5 C 378.492,426.672 379.158,426.338 379.5,425.5C 386.733,426.107 390.9,422.774 392,415.5C 392.667,418.833 392.667,422.167 392,425.5C 391.439,424.978 390.772,424.645 390,424.5C 386.026,427.28 381.86,427.947 377.5,426.5 Z"/></g>
</svg>
